<?xml version="1.0" encoding="utf-8"?>
<!-- Generator: Adobe Illustrator 18.0.0, SVG Export Plug-In . SVG Version: 6.00 Build 0)  -->
<!DOCTYPE svg PUBLIC "-//W3C//DTD SVG 1.1//EN" "http://www.w3.org/Graphics/SVG/1.1/DTD/svg11.dtd">
<svg version="1.1" xmlns="http://www.w3.org/2000/svg" xmlns:xlink="http://www.w3.org/1999/xlink" x="0px" y="0px"
	 viewBox="0 0 841.9 595.3" enable-background="new 0 0 841.9 595.3" xml:space="preserve">
<g id="Calque_1" display="none">
	<path display="inline" fill="none" stroke="#000000" stroke-width="0.5" stroke-miterlimit="10" d="M360.6,212.2
		c7.4,9.9,17.4,17.4,27.3,22.3"/>
	<path display="inline" fill="none" stroke="#000000" stroke-width="0.5" stroke-miterlimit="10" d="M382.9,207.3
		c-7.4,9.9-27.3,39.7-22.3,29.8"/>
	<path display="inline" fill="none" stroke="#000000" stroke-width="0.5" stroke-miterlimit="10" d="M397.8,214.7
		c7.4,9.9,17.4,17.4,27.3,22.3"/>
	<path display="inline" fill="none" stroke="#000000" stroke-width="0.5" stroke-miterlimit="10" d="M422.6,207.3
		c-7.4,9.9-27.3,39.7-22.3,29.8"/>
	<path display="inline" fill="none" stroke="#000000" stroke-width="0.5" stroke-miterlimit="10" d="M325.8,214.7
		c7.4,9.9,17.4,17.4,27.3,22.3"/>
	<path display="inline" fill="none" stroke="#000000" stroke-width="0.5" stroke-miterlimit="10" d="M348.2,207.3
		c-7.4,9.9-27.3,39.7-22.3,29.8"/>
	<path display="inline" fill="none" stroke="#000000" stroke-width="0.5" stroke-miterlimit="10" d="M253.9,214.7
		c7.4,9.9,17.4,17.4,27.3,22.3"/>
	<path display="inline" fill="none" stroke="#000000" stroke-width="0.5" stroke-miterlimit="10" d="M278.7,209.7
		c-7.4,9.9-27.3,39.7-22.3,29.8"/>
	<path display="inline" fill="none" stroke="#000000" stroke-width="0.5" stroke-miterlimit="10" d="M177,212.2
		c9.9,9.9,17.4,17.4,29.8,24.8"/>
	<path display="inline" fill="none" stroke="#000000" stroke-width="0.5" stroke-miterlimit="10" d="M201.8,207.3
		c-7.4,9.9-27.3,39.7-22.3,29.8"/>
	<path display="inline" fill="none" stroke="#000000" stroke-width="0.5" stroke-miterlimit="10" d="M216.7,214.7
		c7.4,9.9,17.4,17.4,27.3,22.3"/>
	<path display="inline" fill="none" stroke="#000000" stroke-width="0.5" stroke-miterlimit="10" d="M241.5,212.2
		c-7.4,9.9-27.3,39.7-22.3,29.8"/>
	<path display="inline" fill="none" stroke="#000000" stroke-width="0.5" stroke-miterlimit="10" d="M291.1,214.7
		c7.4,9.9,17.4,17.4,27.3,22.3"/>
	<path display="inline" fill="none" stroke="#000000" stroke-width="0.5" stroke-miterlimit="10" d="M313.4,209.7
		c-7.4,9.9-27.3,39.7-22.3,29.8"/>
	<path display="inline" fill="none" stroke="#000000" stroke-width="0.5" stroke-miterlimit="10" d="M358.1,296.6
		c7.4,9.9,17.4,17.4,27.3,22.3"/>
	<path display="inline" fill="none" stroke="#000000" stroke-width="0.5" stroke-miterlimit="10" d="M380.4,291.6
		c-7.4,9.9-27.3,39.7-22.3,29.8"/>
	<path display="inline" fill="none" stroke="#000000" stroke-width="0.5" stroke-miterlimit="10" d="M395.3,299
		c7.4,9.9,17.4,17.4,27.3,22.3"/>
	<path display="inline" fill="none" stroke="#000000" stroke-width="0.5" stroke-miterlimit="10" d="M420.1,291.6
		c-7.4,9.9-27.3,39.7-22.3,29.8"/>
	<path display="inline" fill="none" stroke="#000000" stroke-width="0.5" stroke-miterlimit="10" d="M320.9,299
		c7.4,9.9,17.4,17.4,27.3,22.3"/>
	<path display="inline" fill="none" stroke="#000000" stroke-width="0.5" stroke-miterlimit="10" d="M345.7,291.6
		c-7.4,9.9-27.3,39.7-22.3,29.8"/>
	<path display="inline" fill="none" stroke="#000000" stroke-width="0.5" stroke-miterlimit="10" d="M251.4,299
		c7.4,9.9,17.4,17.4,27.3,22.3"/>
	<path display="inline" fill="none" stroke="#000000" stroke-width="0.5" stroke-miterlimit="10" d="M276.2,294.1
		c-7.4,9.9-27.3,39.7-22.3,29.8"/>
	<path display="inline" fill="none" stroke="#000000" stroke-width="0.5" stroke-miterlimit="10" d="M174.5,296.6
		c7.4,9.9,17.4,17.4,27.3,22.3"/>
	<path display="inline" fill="none" stroke="#000000" stroke-width="0.5" stroke-miterlimit="10" d="M199.3,291.6
		c-7.4,9.9-27.3,39.7-22.3,29.8"/>
	<path display="inline" fill="none" stroke="#000000" stroke-width="0.5" stroke-miterlimit="10" d="M214.2,299
		c7.4,9.9,17.4,17.4,27.3,22.3"/>
	<path display="inline" fill="none" stroke="#000000" stroke-width="0.5" stroke-miterlimit="10" d="M239,296.6
		c-7.4,7.4-27.3,39.7-22.3,27.3"/>
	<path display="inline" fill="none" stroke="#000000" stroke-width="0.5" stroke-miterlimit="10" d="M286.1,299
		c7.4,9.9,17.4,17.4,27.3,22.3"/>
	<path display="inline" fill="none" stroke="#000000" stroke-width="0.5" stroke-miterlimit="10" d="M310.9,294.1
		c-7.4,9.9-27.3,39.7-22.3,29.8"/>
	<path display="inline" fill="none" stroke="#000000" stroke-width="0.5" stroke-miterlimit="10" d="M355.6,383.4
		c7.4,9.9,17.4,17.4,27.3,22.3"/>
	<path display="inline" fill="none" stroke="#000000" stroke-width="0.5" stroke-miterlimit="10" d="M377.9,375.9
		c-7.4,9.9-27.3,39.7-22.3,29.8"/>
	<path display="inline" fill="none" stroke="#000000" stroke-width="0.5" stroke-miterlimit="10" d="M395.3,383.4
		c7.4,9.9,17.4,17.4,27.3,22.3"/>
	<path display="inline" fill="none" stroke="#000000" stroke-width="0.5" stroke-miterlimit="10" d="M417.6,378.4
		c-7.4,9.9-27.3,39.7-22.3,29.8"/>
	<path display="inline" fill="none" stroke="#000000" stroke-width="0.5" stroke-miterlimit="10" d="M320.9,383.4
		c7.4,9.9,17.4,17.4,27.3,22.3"/>
	<path display="inline" fill="none" stroke="#000000" stroke-width="0.5" stroke-miterlimit="10" d="M343.2,378.4
		c-7.4,9.9-27.3,39.7-22.3,29.8"/>
	<path display="inline" fill="none" stroke="#000000" stroke-width="0.5" stroke-miterlimit="10" d="M251.4,385.9
		c7.4,9.9,17.4,17.4,27.3,22.3"/>
	<path display="inline" fill="none" stroke="#000000" stroke-width="0.5" stroke-miterlimit="10" d="M273.7,378.4
		c-7.4,9.9-27.3,39.7-22.3,29.8"/>
	<path display="inline" fill="none" stroke="#000000" stroke-width="0.5" stroke-miterlimit="10" d="M108.3,499.5"/>
	<path display="inline" fill="none" stroke="#000000" stroke-width="0.5" stroke-miterlimit="10" d="M196.8,375.9
		c-7.4,9.9-27.3,39.7-22.3,29.8"/>
	<path display="inline" fill="none" stroke="#000000" stroke-width="0.5" stroke-miterlimit="10" d="M211.7,383.4
		c7.4,9.9,17.4,17.4,27.3,22.3"/>
	<path display="inline" fill="none" stroke="#000000" stroke-width="0.5" stroke-miterlimit="10" d="M236.5,380.9
		c-7.4,9.9-27.3,39.7-22.3,29.8"/>
	<path display="inline" fill="none" stroke="#000000" stroke-width="0.5" stroke-miterlimit="10" d="M286.1,383.4
		c7.4,9.9,17.4,17.4,27.3,22.3"/>
	<path display="inline" fill="none" stroke="#000000" stroke-width="0.5" stroke-miterlimit="10" d="M308.5,378.4
		c-7.4,9.9-27.3,39.7-22.3,29.8"/>
</g>
<g id="Calque_2">
	<path fill="none" stroke="#000000" stroke-width="20" stroke-miterlimit="10" d="M184,139.3c4-4,235.6-31.6,237,68
		c1,72.9-254-33-258,43c-1,72,243.8-3.2,265,76c22.8,85.3-239.8-43.4-266,44c-12,40,72,39,72,39"/>
</g>
</svg>
