<?xml version="1.0" encoding="utf-8"?>
<!-- Generator: Adobe Illustrator 18.0.0, SVG Export Plug-In . SVG Version: 6.00 Build 0)  -->
<!DOCTYPE svg PUBLIC "-//W3C//DTD SVG 1.1//EN" "http://www.w3.org/Graphics/SVG/1.1/DTD/svg11.dtd">
<svg version="1.1" id="Calque_1" xmlns="http://www.w3.org/2000/svg" xmlns:xlink="http://www.w3.org/1999/xlink" x="0px" y="0px"
	 viewBox="0 0 24 24" enable-background="new 0 0 24 24" xml:space="preserve">
<path fill="none" stroke="#000000" stroke-width="0.5" stroke-miterlimit="10" d="M16.2,11.6c0.4,0.7,1,1.3,1.6,1.7"/>
<path fill="none" stroke="#000000" stroke-width="0.5" stroke-miterlimit="10" d="M17.5,11.2c-0.4,0.7-1.6,3-1.3,2.2"/>
<path fill="none" stroke="#000000" stroke-width="0.5" stroke-miterlimit="10" d="M12.2,11.7c0.4,0.7,1,1.3,1.6,1.7"/>
<path fill="none" stroke="#000000" stroke-width="0.5" stroke-miterlimit="10" d="M13.5,11.3c-0.4,0.7-1.6,3-1.3,2.2"/>
<path fill="none" stroke="#000000" stroke-width="0.5" stroke-miterlimit="10" d="M7.8,11.5c0.4,0.7,1,1.3,1.6,1.7"/>
<path fill="none" stroke="#000000" stroke-width="0.5" stroke-miterlimit="10" d="M9.1,11.1c-0.4,0.7-1.6,3-1.3,2.2"/>
<path fill="none" stroke="#000000" stroke-width="0.5" stroke-miterlimit="10" d="M10,11.6c0.4,0.7,1,1.3,1.6,1.7"/>
<path fill="none" stroke="#000000" stroke-width="0.5" stroke-miterlimit="10" d="M11.3,11.2c-0.4,0.7-1.6,3-1.3,2.2"/>
<path fill="none" stroke="#000000" stroke-width="0.5" stroke-miterlimit="10" d="M14.2,11.7c0.4,0.7,1,1.3,1.6,1.7"/>
<path fill="none" stroke="#000000" stroke-width="0.5" stroke-miterlimit="10" d="M15.5,11.2c-0.4,0.7-1.6,3-1.3,2.2"/>
</svg>
